<?xml version="1.0" standalone="no"?>
<!DOCTYPE svg PUBLIC "-//W3C//DTD SVG 20010904//EN"
 "http://www.w3.org/TR/2001/REC-SVG-20010904/DTD/svg10.dtd">
<svg version="1.0" xmlns="http://www.w3.org/2000/svg"
 width="700.000000pt" height="700.000000pt" viewBox="0 0 700.000000 700.000000"
 preserveAspectRatio="xMidYMid meet">
<metadata>
Created by potrace 1.14, written by Peter Selinger 2001-2017
</metadata>
<g transform="translate(0.000000,700.000000) scale(0.100000,-0.100000)"
fill="#000000" stroke="none">
<path d="M2930 6647 c-3 -3 -48 -8 -100 -11 -52 -4 -120 -11 -150 -16 -30 -5
-71 -11 -90 -14 -206 -31 -455 -107 -657 -201 -111 -52 -107 -47 -105 -131 1
-26 -9 -41 -56 -85 -57 -55 -183 -149 -199 -149 -11 0 -88 -66 -182 -155 -74
-70 -241 -258 -241 -270 0 -4 -13 -24 -28 -44 -265 -340 -439 -791 -477 -1236
-7 -82 -19 -134 -37 -156 -7 -9 -33 -24 -57 -33 -108 -42 -260 -172 -321 -275
-32 -55 -48 -95 -66 -166 -4 -16 -34 -214 -34 -225 0 -5 -20 -32 -45 -60 -25
-28 -48 -63 -52 -78 -8 -32 -9 -371 -1 -422 8 -52 34 -108 68 -146 16 -19 30
-38 30 -42 0 -4 4 -34 10 -67 5 -33 12 -82 15 -110 9 -82 14 -104 38 -161 63
-155 227 -289 412 -340 85 -23 288 -27 390 -8 44 9 83 18 87 22 3 4 9 403 13
887 8 1052 11 1183 31 1330 2 17 6 50 9 75 2 25 10 70 15 100 6 30 14 66 16
80 83 423 341 869 637 1099 242 187 517 306 847 365 231 41 373 50 845 50 444
0 556 -6 775 -40 130 -19 141 -22 250 -50 264 -71 502 -191 715 -363 311 -252
568 -720 630 -1146 3 -23 8 -52 10 -65 3 -14 8 -54 11 -90 3 -36 7 -83 10
-105 12 -106 2 -1790 -11 -1835 -2 -8 -7 -31 -10 -50 -3 -19 -17 -77 -31 -128
-129 -480 -386 -843 -759 -1074 -236 -146 -459 -234 -665 -262 -76 -10 -117
-11 -226 -7 -20 1 -52 18 -95 51 -105 82 -109 82 -489 76 l-330 -5 -55 -36
c-31 -21 -76 -65 -104 -102 l-49 -66 3 -86 c2 -105 29 -180 86 -245 68 -77 72
-78 424 -81 374 -3 431 7 521 88 52 46 69 54 139 61 292 31 492 82 732 187
114 50 162 75 258 138 339 219 620 527 777 851 45 91 133 330 122 330 -3 0 -1
8 5 17 7 13 24 18 73 19 202 5 352 65 481 191 88 86 144 215 162 373 13 109
24 141 69 191 24 27 46 63 50 81 4 18 6 127 6 243 -2 237 -6 257 -70 316 -31
28 -40 45 -41 70 -2 95 -18 224 -30 257 -6 15 -10 28 -10 30 3 6 -35 72 -67
117 -70 98 -136 151 -239 189 -101 38 -144 98 -158 221 -3 33 -8 76 -10 95 -3
19 -7 60 -10 90 -20 185 -107 454 -225 690 -88 178 -171 307 -294 460 -57 70
-216 234 -282 290 -65 55 -234 179 -266 194 -45 22 -86 60 -96 88 -5 13 -8 47
-6 75 3 64 -3 70 -149 142 -197 96 -427 158 -692 186 -22 3 -65 7 -95 11 -61
7 -1303 17 -1310 11z"/>
<path d="M2034 4876 c-22 -6 -53 -21 -68 -33 -25 -20 -27 -27 -28 -103 0 -44
1 -83 4 -85 2 -2 21 0 43 5 22 5 58 11 80 14 22 3 49 7 60 9 20 5 92 12 218
23 37 3 77 7 87 9 10 2 54 7 97 10 43 4 81 9 86 12 4 2 7 16 7 31 0 34 -58 97
-103 111 -43 13 -432 10 -483 -3z"/>
<path d="M4482 4872 c-31 -7 -60 -16 -65 -21 -4 -4 -14 -31 -22 -60 -10 -39
-11 -53 -2 -56 7 -2 53 -6 102 -10 50 -3 104 -7 120 -10 17 -2 53 -7 80 -9 81
-9 137 -16 190 -26 66 -12 135 -23 160 -24 17 -1 19 6 20 79 1 77 0 81 -32
112 -18 18 -40 33 -50 34 -156 7 -454 2 -501 -9z"/>
<path d="M3410 4867 c-45 -14 -113 -83 -141 -141 -17 -37 -26 -46 -48 -46 -30
-1 -129 -1 -646 0 -371 1 -418 -1 -500 -21 -116 -29 -338 -137 -425 -207 -195
-157 -345 -439 -375 -702 -3 -30 -8 -71 -10 -90 -20 -170 -30 -370 -30 -610 1
-245 8 -386 25 -490 5 -30 11 -73 14 -95 40 -297 193 -655 313 -734 58 -39
131 -61 198 -61 54 0 122 29 213 92 81 56 502 493 677 703 28 33 53 62 56 65
4 3 28 32 55 66 129 160 228 265 294 311 132 90 247 124 430 127 268 6 424
-92 706 -439 191 -235 254 -304 530 -581 229 -230 285 -279 365 -320 81 -40
186 -37 280 8 66 32 150 159 218 332 28 69 73 230 85 301 3 17 8 41 10 55 8
39 16 97 22 159 3 31 7 72 9 91 16 140 24 801 12 953 -13 171 -43 315 -87 422
-49 120 -105 218 -157 275 -13 14 -23 28 -23 32 0 3 -35 35 -77 71 -202 166
-378 242 -663 284 -30 4 -264 8 -519 8 l-465 0 -13 54 c-16 60 -34 79 -110
116 -41 20 -66 25 -120 24 -37 -1 -84 -6 -103 -12z m-927 -755 l31 -31 -3
-156 -2 -156 38 8 c61 13 223 9 301 -6 1 -1 2 -66 2 -146 0 -185 10 -175 -192
-170 l-148 4 0 -159 c0 -200 9 -190 -170 -185 -69 2 -130 4 -137 4 -29 2 -38
47 -38 191 l0 145 -152 0 c-197 0 -192 -4 -194 150 0 61 2 117 6 125 3 8 23
28 43 44 42 32 55 32 260 1 l38 -5 -2 147 c-2 157 3 176 50 214 17 14 40 17
130 14 106 -2 109 -3 139 -33z m2256 -11 c42 -22 43 -23 62 -112 14 -68 9 -95
-28 -136 -60 -66 -188 -66 -253 2 -30 31 -33 39 -34 102 -1 96 21 138 83 157
57 18 119 13 170 -13z m-328 -355 c32 -25 52 -80 53 -144 2 -83 -64 -142 -159
-143 -53 -1 -84 12 -123 52 -32 33 -36 47 -34 136 1 60 16 81 75 109 43 20 61
23 107 18 33 -4 65 -15 81 -28z m664 14 c49 -16 56 -31 70 -161 6 -55 6 -57
-30 -86 -88 -73 -194 -70 -258 7 -23 27 -26 38 -23 93 4 79 41 149 83 157 41
8 117 3 158 -10z m-324 -362 c33 -37 62 -123 55 -161 -19 -108 -131 -163 -229
-113 -90 45 -113 144 -59 247 32 61 47 68 140 63 57 -3 66 -6 93 -36z"/>
</g>
</svg>
